<?xml version="1.0" standalone="no"?>
<!DOCTYPE svg PUBLIC "-//W3C//DTD SVG 20010904//EN"
 "http://www.w3.org/TR/2001/REC-SVG-20010904/DTD/svg10.dtd">
<svg version="1.0" xmlns="http://www.w3.org/2000/svg"
 width="600.000000pt" height="600.000000pt" viewBox="0 0 600.000000 600.000000"
 preserveAspectRatio="none">

<g transform="translate(0.000000,600.000000) scale(0.100000,-0.100000)"
fill="#000000" stroke="none">
<path d="M2602 5688 c-7 -7 -12 -27 -12 -45 0 -22 -6 -36 -20 -43 -11 -6 -20
-17 -20 -25 0 -8 -4 -15 -10 -15 -20 0 -29 -68 -14 -122 23 -86 93 -522 109
-678 43 -428 49 -624 50 -1555 0 -1064 -16 -2002 -40 -2295 -3 -36 -6 -148 -6
-250 -1 -146 2 -193 14 -222 18 -43 91 -116 121 -123 11 -2 67 -14 122 -26 56
-12 113 -19 126 -16 34 9 78 52 78 77 0 11 10 34 22 50 23 32 23 6 -1 350 -40
546 -82 3055 -61 3616 9 248 23 873 23 1031 0 49 -37 118 -85 159 -48 40 -123
71 -213 90 -44 8 -98 24 -121 35 -48 22 -47 22 -62 7z m370 -1258 c19 -136 17
-3015 -2 -3290 l-6 -85 -2 95 c-34 1617 -49 2982 -36 3367 l8 248 13 -125 c7
-69 19 -163 25 -210z"/>
</g>
</svg>
