<?xml version="1.0" standalone="no"?>
<!DOCTYPE svg PUBLIC "-//W3C//DTD SVG 20010904//EN"
 "http://www.w3.org/TR/2001/REC-SVG-20010904/DTD/svg10.dtd">
<svg version="1.0" xmlns="http://www.w3.org/2000/svg"
 width="200.000000pt" height="190.000000pt" viewBox="0 0 200.000000 190.000000"
 preserveAspectRatio="xMidYMid meet">

<g transform="translate(0.000000,190.000000) scale(0.100000,-0.100000)"
fill="#000000" stroke="none">
<path d="M741 1844 c-14 -14 -90 -69 -170 -122 -227 -150 -330 -263 -432 -473
-57 -118 -71 -187 -67 -327 4 -123 6 -131 52 -253 80 -214 198 -376 345 -473
110 -73 181 -96 303 -97 48 0 92 -8 128 -21 64 -24 226 -36 280 -20 31 9 27
10 -42 11 -85 1 -178 18 -178 32 0 5 13 9 29 9 16 0 42 5 58 11 15 6 44 10 63
10 65 -1 235 31 313 60 117 42 193 93 295 197 106 108 132 152 169 290 22 79
27 119 27 217 1 141 -15 211 -73 330 -60 122 -127 202 -253 304 -132 107 -256
174 -371 202 -45 12 -109 34 -142 50 -33 15 -98 36 -143 45 -46 9 -96 22 -110
30 -38 20 -54 17 -81 -12z m588 -185 c35 -16 62 -31 60 -33 -5 -6 -115 18
-149 32 -14 5 -32 18 -40 28 -14 16 -12 17 25 10 21 -4 68 -21 104 -37z m-699
4 c0 -5 -41 -37 -92 -73 -50 -35 -129 -100 -175 -143 -82 -78 -107 -92 -82
-45 41 79 166 188 274 239 63 30 75 34 75 22z m650 -123 c58 -29 58 -42 0 -14
-27 13 -50 26 -50 29 0 9 9 6 50 -15z m305 -93 c26 -22 55 -61 70 -95 15 -31
36 -76 46 -98 20 -44 43 -147 36 -167 -2 -6 -11 13 -21 43 -16 50 -35 89 -107
218 -13 24 -61 80 -107 124 l-84 81 62 -34 c34 -19 82 -51 105 -72z m-975 40
c0 -2 -15 -13 -32 -26 l-33 -22 28 25 c26 24 37 31 37 23z m-20 -94 c-84 -90
-122 -122 -143 -123 -4 0 0 12 10 28 14 22 9 20 -26 -13 l-43 -40 17 34 c21
42 132 157 142 148 4 -4 -11 -26 -33 -49 -43 -47 -21 -34 41 23 36 32 114 89
123 89 2 0 -37 -44 -88 -97z m765 -28 c44 -44 95 -106 113 -137 76 -129 108
-288 82 -411 -37 -179 -198 -373 -384 -463 -114 -55 -154 -60 -269 -30 -123
32 -237 86 -289 138 -22 22 -58 78 -81 126 l-42 87 3 185 c3 204 16 279 59
345 45 69 144 158 219 197 l72 38 128 -1 c142 -1 177 4 206 33 18 18 20 18 60
-4 23 -13 78 -59 123 -103z m-520 106 c3 -5 -3 -12 -14 -16 -35 -11 -143 -86
-199 -138 l-56 -52 35 49 c38 54 132 144 163 156 29 12 64 12 71 1z m-595
-148 c0 -5 -10 -19 -21 -33 l-20 -25 16 33 c15 30 25 41 25 25z m1541 -114
c45 -88 86 -310 76 -408 -27 -255 -208 -480 -460 -570 -96 -34 -148 -41 -79
-10 75 33 231 157 280 223 80 108 164 315 183 449 13 95 4 266 -17 316 -15 37
-16 41 -9 41 2 0 14 -19 26 -41z m-1314 3 c-8 -10 -27 -57 -42 -106 -16 -52
-30 -84 -35 -77 -19 32 -19 -103 0 -214 12 -65 19 -125 18 -134 -2 -9 -17 19
-32 62 -29 77 -29 78 -23 260 2 100 8 189 12 199 4 9 26 20 53 25 56 11 69 7
49 -15z m-106 -534 c44 -87 83 -144 143 -207 l51 -54 -42 32 c-24 18 -43 28
-43 22 0 -5 4 -13 10 -16 5 -3 15 -16 21 -27 11 -21 11 -21 -19 1 -44 31 -88
90 -122 163 -28 60 -50 148 -36 148 3 0 20 -28 37 -62z m1158 -75 c-50 -132
-148 -238 -251 -271 -115 -37 -128 -35 -53 7 102 57 180 125 248 214 32 42 60
77 63 77 2 0 -1 -12 -7 -27z m-360 -343 c-9 -5 -48 -15 -85 -21 -56 -9 -75 -9
-99 2 -28 13 -24 14 70 19 55 4 107 7 115 8 12 1 12 0 -1 -8z"/>
</g>
</svg>
