<?xml version="1.0" standalone="no"?>
<!DOCTYPE svg PUBLIC "-//W3C//DTD SVG 20010904//EN"
 "http://www.w3.org/TR/2001/REC-SVG-20010904/DTD/svg10.dtd">
<svg version="1.0" xmlns="http://www.w3.org/2000/svg"
 width="600.000000pt" height="580.000000pt" viewBox="0 0 600.000000 580.000000"
 preserveAspectRatio="none">

<g transform="translate(0.000000,580.000000) scale(0.100000,-0.100000)"
fill="#000000" stroke="none">
<path d="M3877 5773 c-2 -5 -7 -21 -11 -38 -4 -16 -18 -40 -31 -53 -39 -39
-43 -87 -11 -147 14 -28 31 -66 37 -85 10 -35 31 -604 45 -1242 l7 -328 -459
0 c-252 0 -684 3 -960 7 l-501 6 -7 311 c-5 171 -10 542 -12 825 -4 501 -4
514 -25 547 -41 67 -124 111 -247 134 -33 6 -74 17 -89 25 -52 27 -73 16 -73
-40 0 -12 -6 -25 -13 -28 -18 -7 -47 -69 -47 -100 0 -14 18 -52 40 -85 50 -74
65 -117 95 -262 59 -287 85 -562 94 -1003 l6 -317 -103 0 c-56 0 -212 4 -345
10 -133 5 -379 14 -547 21 -252 9 -315 14 -360 30 -30 10 -84 25 -120 33 -36
7 -82 21 -103 30 -37 16 -37 16 -47 -9 -6 -15 -10 -33 -10 -41 0 -8 -7 -17
-15 -21 -23 -8 -45 -57 -45 -95 1 -41 15 -68 67 -121 40 -42 93 -66 189 -86
50 -10 160 4 180 23 7 8 44 17 81 20 38 4 100 11 139 16 39 5 182 12 317 16
136 4 245 9 243 12 -3 2 -105 6 -228 7 -123 2 -259 4 -303 6 -164 5 217 16
616 18 l397 1 6 -702 c4 -387 6 -820 4 -963 l-3 -260 -675 -3 c-598 -2 -685
-1 -765 14 -50 9 -102 23 -117 30 -15 8 -38 14 -53 14 -21 0 -25 -4 -25 -31 0
-21 -9 -40 -24 -54 -13 -12 -29 -39 -35 -60 -8 -31 -7 -44 9 -75 31 -61 71
-102 125 -125 123 -55 255 -56 311 -3 29 27 41 30 155 43 69 7 136 16 149 19
25 6 570 46 624 46 16 0 27 2 24 5 -3 3 -193 -2 -423 -10 -230 -8 -420 -14
-422 -12 -5 6 230 26 492 42 374 23 638 35 644 29 7 -7 2 -463 -10 -864 -5
-184 -10 -419 -10 -521 -1 -206 4 -225 71 -296 28 -32 33 -33 104 -33 87 0 98
9 136 111 l23 62 -11 411 c-7 226 -15 576 -19 777 l-6 366 264 7 c1000 26
1629 32 1629 16 0 -5 -26 -11 -57 -11 -32 -1 -112 -5 -178 -9 l-120 -6 179 -2
179 -2 -7 -373 c-4 -204 -11 -478 -16 -607 -13 -299 -6 -428 25 -495 28 -60
115 -187 132 -192 7 -3 22 8 35 22 13 15 37 43 55 63 18 20 44 68 58 107 25
67 27 79 26 255 0 102 -5 316 -11 475 -5 160 -10 393 -10 519 l0 229 358 -7
c196 -4 422 -9 502 -11 292 -5 832 18 938 41 21 4 22 9 22 94 0 50 -4 90 -9
90 -5 0 -11 13 -14 28 -5 23 -14 31 -46 40 -56 17 -223 16 -381 -2 -154 -18
-391 -31 -795 -46 -154 -5 -348 -13 -432 -16 l-151 -7 1 906 1 905 210 -5
c116 -3 292 -8 391 -13 175 -7 170 -7 -155 -10 l-335 -3 250 -8 c138 -5 500
-9 805 -11 613 -3 615 -3 615 55 -1 17 6 29 17 33 41 13 0 104 -47 104 -14 0
-25 7 -28 19 -2 11 -20 27 -38 37 -46 25 -283 25 -519 1 -238 -24 -475 -36
-859 -44 l-324 -6 7 234 c27 931 54 1258 108 1316 35 37 32 106 -7 168 -37 60
-106 99 -219 125 -45 10 -98 25 -118 34 -43 18 -45 19 -51 9z m243 -1438 c3
-482 5 -445 -25 -445 -25 0 -25 1 -26 98 -4 238 11 824 28 1102 7 120 8 114
14 -145 4 -148 7 -423 9 -610z m-2226 534 c17 -116 35 -494 39 -781 2 -150 -1
-189 -11 -193 -8 -3 -17 -3 -21 0 -4 2 -11 190 -14 417 -4 227 -10 472 -13
543 -4 72 -4 127 0 124 3 -3 13 -53 20 -110z m-325 -996 c83 -3 149 -9 145
-12 -6 -6 -230 -3 -584 9 l-215 7 251 1 c138 1 319 -1 403 -5z m366 -13 c-3
-5 -12 -10 -20 -10 -8 0 -17 5 -20 10 -4 6 5 10 20 10 15 0 24 -4 20 -10z
m1585 -10 l395 -7 -625 -1 c-701 -2 -1300 7 -1300 20 0 8 776 2 1530 -12z
m593 -7 c-7 -2 -21 -2 -30 0 -10 3 -4 5 12 5 17 0 24 -2 18 -5z m310 0 c-45
-2 -122 -2 -170 0 -48 1 -11 3 82 3 94 0 133 -2 88 -3z m-2482 -553 c3 -261 7
-692 8 -957 l1 -483 -25 0 -25 0 -1 928 c-1 510 -3 938 -4 952 -3 32 3 42 23
38 15 -3 18 -47 23 -478z m1029 465 c349 -3 701 -8 781 -11 l147 -7 -3 -904
c-1 -497 -4 -905 -6 -908 -2 -2 -191 -11 -419 -19 -228 -9 -650 -25 -938 -37
-288 -12 -525 -19 -527 -18 -3 4 -9 1891 -6 1912 0 5 76 6 169 3 92 -3 453 -8
802 -11z m1150 -920 c0 -900 0 -905 -20 -905 -25 0 -23 -85 -24 967 l-1 843
22 0 23 0 0 -905z m-810 -981 c-212 -7 -567 -20 -790 -29 -463 -17 -520 -18
-520 -7 0 12 1108 48 1490 49 171 0 141 -2 -180 -13z m-1580 -43 c0 -9 -757
-27 -766 -18 -3 2 127 9 288 14 416 14 478 14 478 4z m207 -2 c-14 -8 -22 -8
-30 0 -8 8 -3 11 19 11 25 -1 27 -2 11 -11z m2168 -59 c3 -5 -1 -10 -10 -10
-9 0 -13 5 -10 10 3 6 8 10 10 10 2 0 7 -4 10 -10z m213 -7 c-27 -2 -69 -2
-95 0 -27 2 -5 3 47 3 52 0 74 -1 48 -3z m-2373 -85 c-2 -35 -5 -232 -7 -438
-1 -206 -5 -451 -8 -545 -5 -166 -5 -164 -13 140 -4 171 -10 444 -13 608 l-7
297 26 0 c26 0 26 -1 22 -62z m2164 -280 c-1 -189 -4 -395 -8 -458 -5 -96 -7
-63 -13 195 -12 490 -11 605 7 605 13 0 15 -44 14 -342z"/>
</g>
</svg>
