<?xml version="1.0" standalone="no"?>
<!DOCTYPE svg PUBLIC "-//W3C//DTD SVG 20010904//EN"
 "http://www.w3.org/TR/2001/REC-SVG-20010904/DTD/svg10.dtd">
<svg version="1.0" xmlns="http://www.w3.org/2000/svg"
 width="540.000000pt" height="177.000000pt" viewBox="0 0 540.000000 177.000000"
 preserveAspectRatio="xMidYMid meet">

<g transform="translate(0.000000,177.000000) scale(0.100000,-0.100000)"
fill="#000000" stroke="none">
<path d="M72 1692 c-31 -44 -32 -59 -9 -94 34 -50 90 -67 229 -67 68 -1 119
-5 123 -11 6 -10 13 -75 35 -340 6 -74 18 -166 27 -205 13 -57 14 -92 7 -190
-5 -66 -9 -213 -9 -326 0 -233 2 -238 76 -260 54 -17 82 -6 97 35 11 28 9 61
-13 210 -14 97 -25 181 -25 187 0 6 -5 7 -11 3 -8 -5 -10 -41 -6 -121 3 -63 4
-113 1 -111 -2 3 -11 49 -19 104 -8 54 -22 124 -30 154 -8 30 -16 68 -16 85
-1 17 -3 22 -6 13 -2 -10 -9 -18 -14 -18 -5 0 -9 59 -8 138 0 76 4 128 8 117
6 -14 10 1 14 50 4 39 13 104 20 145 l13 75 8 -79 c16 -162 27 -138 41 89 7
109 24 245 34 264 6 12 51 15 253 15 231 1 273 5 254 24 -4 4 -123 9 -264 12
-246 5 -258 6 -287 27 -16 12 -48 27 -70 32 -22 5 -50 13 -62 16 -17 6 -23 3
-23 -9 0 -19 4 -19 -97 -2 -82 15 -118 24 -205 50 -47 15 -48 15 -66 -12z
m833 -120 c-11 -4 -60 -5 -110 -2 l-90 7 110 1 c61 0 101 -3 90 -6z"/>
<path d="M1424 1640 l-26 -39 19 -33 c28 -49 74 -68 164 -68 42 0 92 3 110 7
33 7 33 7 9 14 -15 4 13 7 68 8 90 1 93 0 102 -24 5 -14 14 -89 20 -168 6 -78
16 -194 23 -257 20 -189 15 -499 -11 -680 -25 -176 -28 -263 -9 -277 18 -15
94 -22 106 -10 7 7 12 5 17 -6 9 -25 33 -20 44 9 17 43 11 150 -21 359 -3 23
-17 -55 -19 -110 l-2 -60 -9 45 c-5 25 -16 74 -24 110 -8 36 -15 81 -16 100 0
19 -3 29 -6 22 -2 -6 -9 -10 -14 -6 -11 7 -11 382 1 409 8 19 9 18 11 -5 3
-33 14 75 30 290 14 194 27 187 29 -15 1 -60 5 -130 9 -155 7 -44 7 -44 14 30
3 41 9 125 12 185 3 61 8 134 11 163 l6 54 121 -7 c67 -3 182 -15 254 -26 146
-22 188 -22 188 1 0 8 7 21 15 28 13 10 12 15 -10 32 -14 11 -36 30 -50 42
-23 19 -32 20 -130 14 -130 -9 -269 -22 -252 -24 6 -1 12 -6 12 -12 0 -6 -35
-10 -85 -10 -47 0 -85 4 -85 9 0 15 -48 41 -93 50 -23 5 -50 12 -59 16 -12 5
-18 3 -18 -6 -1 -8 -9 -24 -19 -36 -15 -19 -29 -23 -68 -22 -42 1 -44 2 -18 9
30 7 30 7 5 13 -14 3 -48 8 -76 11 -53 5 -196 41 -226 57 -25 13 -25 13 -54
-31z"/>
<path d="M3283 1622 c-4 -9 -13 -23 -20 -30 -34 -34 5 -103 72 -125 40 -14 64
-15 188 -5 89 8 133 15 117 19 -17 5 -2 7 42 8 l66 1 11 -32 c6 -18 22 -141
36 -273 14 -132 30 -276 36 -319 11 -75 3 -410 -17 -678 -5 -73 -4 -79 19
-102 16 -16 32 -23 45 -19 11 2 23 0 26 -6 4 -5 13 -8 20 -5 8 3 17 1 20 -4 9
-16 46 -2 46 17 0 9 5 22 10 27 7 7 7 41 1 105 -5 52 -15 156 -22 232 -7 76
-16 140 -21 143 -4 3 -8 -66 -8 -152 0 -87 -2 -155 -5 -153 -2 3 -9 57 -15
121 -5 64 -16 147 -24 185 -22 103 -28 841 -7 788 5 -11 14 -94 21 -185 20
-261 28 -268 29 -23 1 122 6 245 12 273 l11 50 65 0 c35 0 115 -7 176 -15 62
-9 144 -20 182 -25 82 -11 115 -5 115 20 0 10 5 20 12 22 16 6 3 37 -19 45
-10 4 -25 16 -34 27 -20 24 -93 26 -366 12 -118 -6 -176 -6 -185 2 -14 11
-113 42 -135 42 -7 0 -13 -6 -13 -14 0 -8 -9 -17 -20 -21 -32 -10 -378 33
-434 55 -22 8 -28 7 -33 -8z m700 -79 c-7 -2 -19 -2 -25 0 -7 3 -2 5 12 5 14
0 19 -2 13 -5z m-104 -800 c1 -24 -3 -43 -9 -43 -6 0 -10 33 -9 83 1 70 2 76
10 42 4 -22 8 -59 8 -82z"/>
<path d="M702 1081 c-3 -9 -12 -22 -19 -29 -21 -22 -15 -42 26 -83 35 -36 43
-39 93 -39 44 0 59 4 76 23 21 22 21 24 4 56 -19 37 -63 64 -130 79 -37 8 -44
7 -50 -7z"/>
<path d="M728 814 c-23 -45 -23 -53 8 -170 37 -143 37 -145 20 -225 -28 -135
-30 -183 -7 -203 11 -10 27 -15 38 -12 10 3 25 1 33 -4 10 -6 20 -4 32 7 17
15 18 15 18 -5 0 -34 27 -26 46 13 15 32 15 40 -1 117 -21 104 -26 111 -41 62
-7 -22 -12 -31 -13 -19 -1 11 -10 37 -21 58 -22 41 -26 103 -8 142 14 32 22
32 38 -2 l13 -28 9 35 c5 19 17 60 26 90 8 30 15 63 14 74 -1 21 -27 53 -55
68 -15 7 -122 39 -130 38 -1 0 -10 -16 -19 -36z m79 -306 c-3 -7 -5 -2 -5 12
0 14 2 19 5 13 2 -7 2 -19 0 -25z"/>
<path d="M4958 763 c22 -9 13 -21 -22 -27 -37 -7 -99 -48 -160 -105 l-38 -36
17 35 18 35 -27 -24 c-54 -51 -67 -185 -26 -278 27 -60 102 -137 159 -162 27
-11 73 -23 102 -27 92 -11 291 27 319 60 12 16 -11 46 -36 46 -8 0 -14 6 -14
14 0 25 -106 18 -148 -10 -66 -45 -169 -19 -210 55 -31 56 -28 68 19 83 23 6
37 14 30 16 -6 2 -11 8 -11 13 0 14 114 11 188 -6 37 -9 88 -20 114 -26 56
-13 88 -5 88 22 0 10 5 19 10 19 18 0 11 29 -24 98 -39 76 -64 106 -121 149
-69 52 -99 63 -172 62 -37 0 -62 -3 -55 -6z m142 -18 c23 -9 28 -14 15 -14
-11 0 -33 6 -50 14 -39 17 -11 18 35 0z m-172 -81 c-20 -15 -49 -44 -64 -65
-40 -59 -62 -50 -37 14 17 41 68 76 113 77 23 0 22 -2 -12 -26z m119 9 c35
-16 93 -84 93 -108 0 -7 -24 -19 -52 -28 -46 -13 -49 -16 -23 -17 30 -2 30 -2
5 -10 -33 -11 -120 -11 -145 0 l-20 9 20 1 c15 1 12 5 -12 13 -17 7 -34 15
-38 19 -11 11 33 85 67 112 39 30 57 32 105 9z m154 -14 c13 -26 7 -24 -22 7
-17 19 -19 23 -6 18 10 -3 22 -15 28 -25z m-328 -346 c17 -18 26 -33 20 -33
-16 0 -83 78 -83 97 0 13 4 12 17 -7 9 -14 30 -40 46 -57z"/>
<path d="M1150 749 c-48 -14 -58 -27 -18 -21 l33 4 -45 -29 c-67 -44 -117
-100 -151 -170 -34 -68 -34 -106 2 -190 22 -51 31 -56 18 -11 -19 69 -7 70 26
3 19 -38 35 -75 35 -81 0 -6 7 -17 15 -24 9 -7 13 -16 9 -19 -3 -3 -19 10 -35
29 l-30 35 17 -35 c23 -48 52 -78 99 -102 79 -41 270 -6 310 56 19 29 10 50
-26 61 -11 4 -17 10 -14 15 2 4 -17 8 -44 8 -43 0 -54 -5 -82 -34 -37 -38 -56
-41 -102 -18 -21 11 -28 12 -19 3 18 -19 15 -28 -7 -22 -31 8 -92 74 -114 123
-33 69 -30 169 6 242 23 46 36 61 72 78 26 13 50 18 57 14 7 -5 22 -10 33 -11
11 -2 36 -21 55 -43 40 -45 73 -60 134 -60 73 0 98 52 52 108 -59 69 -204 115
-286 91z m246 -537 c-18 -16 -19 -16 -12 1 3 10 6 24 6 30 0 8 4 7 12 -1 10
-9 8 -16 -6 -30z"/>
<path d="M4162 676 c-67 -108 -82 -144 -89 -219 -14 -153 75 -263 224 -275 77
-6 210 15 270 44 54 26 86 65 98 119 5 26 4 24 -13 -10 -11 -22 -32 -52 -48
-67 -29 -27 -112 -63 -122 -53 -3 3 0 5 6 5 20 0 82 62 103 101 14 28 19 59
19 117 0 67 -4 88 -28 135 -20 39 -24 53 -13 47 28 -15 59 -54 80 -100 25 -55
29 -22 5 39 -31 79 -174 171 -239 155 -12 -3 -39 2 -60 10 -21 9 -47 18 -59
20 -11 3 -34 7 -51 11 -29 5 -32 2 -83 -79z m307 -84 c75 -55 104 -196 57
-278 -28 -49 -96 -85 -156 -82 l-45 1 50 7 c46 6 47 7 13 8 -21 1 -56 9 -78
18 -52 21 -90 89 -90 162 0 60 18 115 35 108 7 -2 25 5 41 15 16 11 44 26 62
34 18 8 35 21 38 29 7 18 27 12 73 -22z m-349 -32 c-6 -12 -14 -19 -17 -17 -2
3 1 15 7 27 6 12 14 19 17 17 2 -3 -1 -15 -7 -27z m88 -57 c-15 -35 -19 -58
-15 -97 l6 -51 -20 39 c-27 50 -19 128 14 144 36 17 37 14 15 -35z m47 -241
c-9 -10 -49 28 -67 63 l-21 40 46 -50 c25 -27 44 -51 42 -53z"/>
<path d="M3065 736 c-148 -69 -186 -90 -204 -112 -12 -15 -21 -32 -20 -38 0
-6 5 -1 11 11 13 28 73 69 113 77 29 7 28 6 -10 -20 -22 -15 -59 -45 -82 -67
l-43 -41 0 -116 c0 -211 43 -284 179 -302 161 -21 173 -21 221 4 72 37 102
118 58 158 -13 12 -30 27 -38 35 -8 7 -35 15 -60 16 -44 4 -46 2 -65 -36 -14
-26 -34 -47 -59 -59 -47 -23 -57 -15 -92 75 l-24 64 3 -49 c2 -36 0 -44 -8
-31 -5 9 -15 24 -22 33 -10 15 -11 14 -8 -8 3 -14 -2 -7 -9 15 -18 51 -20 158
-3 188 22 41 61 77 81 77 19 0 19 -1 -2 -23 -12 -13 -24 -38 -27 -57 -5 -32
-5 -33 5 -10 15 34 70 90 90 90 9 0 33 -9 55 -20 53 -27 124 -27 153 0 26 24
27 32 7 69 -15 30 -86 71 -123 71 -11 0 -24 5 -27 10 -8 13 -14 12 -50 -4z
m170 -582 c-25 -19 -90 -36 -118 -31 -16 2 -18 5 -7 9 12 4 119 32 140 36 3 1
-4 -5 -15 -14z"/>
<path d="M2235 673 c-47 -55 -95 -124 -95 -138 0 -5 11 7 25 28 14 20 30 37
36 37 6 0 -4 -20 -22 -45 -17 -24 -35 -42 -39 -40 -4 3 -10 -12 -14 -33 -22
-134 13 -242 101 -309 25 -19 57 -30 116 -40 44 -7 83 -10 86 -8 2 3 -4 5 -15
6 -30 2 24 17 66 18 19 1 62 12 95 26 63 26 75 23 75 -22 0 -12 12 -36 26 -53
24 -28 32 -31 73 -28 36 2 46 7 45 20 -2 16 0 16 19 3 26 -18 47 -19 47 -2 0
7 -14 18 -31 24 -17 7 -28 16 -25 21 3 5 -6 14 -20 21 -35 16 -49 14 -34 -4 7
-9 8 -15 2 -15 -10 0 -38 27 -68 65 -15 20 -15 19 -8 -4 5 -21 4 -22 -9 -10
-13 12 -11 18 10 46 14 18 29 30 34 27 5 -3 9 23 8 58 0 35 4 87 10 117 6 29
11 59 11 66 0 23 -53 65 -99 79 -26 7 -62 23 -81 35 -19 11 -42 21 -50 21 -8
1 -28 7 -45 16 l-30 14 34 -5 c65 -10 20 9 -62 26 -45 9 -93 20 -107 23 -21 5
-32 -2 -65 -41z m325 -72 c-16 -6 -18 -16 -27 -102 -3 -37 0 -75 10 -110 l16
-53 -46 -54 c-26 -30 -38 -50 -27 -44 30 18 48 35 67 62 9 13 17 20 17 14 0
-17 -60 -88 -80 -96 -42 -16 -181 21 -209 55 -21 26 -33 20 -15 -8 20 -31 6
-33 -25 -4 -50 47 -62 117 -36 207 12 39 23 56 45 67 35 18 36 16 10 -35 -14
-27 -20 -57 -19 -97 l2 -58 7 56 c7 58 43 134 67 143 9 4 11 1 7 -6 -5 -7 -2
-9 8 -6 9 4 37 10 62 13 29 5 52 14 59 26 8 13 19 17 37 13 23 -5 23 -4 8 9
-15 12 -12 14 29 14 26 0 40 -3 33 -6z m39 -397 c-9 -8 -33 -19 -54 -24 -21
-5 -34 -5 -29 0 5 5 22 11 38 14 16 3 34 10 40 16 5 5 12 10 15 10 3 0 -2 -7
-10 -16z m-162 -10 c-3 -3 -12 -4 -19 -1 -8 3 -5 6 6 6 11 1 17 -2 13 -5z"/>
<path d="M5251 190 c-13 -11 -19 -20 -13 -20 5 0 20 9 33 20 13 10 20 19 14
19 -5 0 -21 -9 -34 -19z"/>
</g>
</svg>
