<?xml version="1.0" standalone="no"?>
<!DOCTYPE svg PUBLIC "-//W3C//DTD SVG 20010904//EN"
 "http://www.w3.org/TR/2001/REC-SVG-20010904/DTD/svg10.dtd">
<svg version="1.0" xmlns="http://www.w3.org/2000/svg"
 width="200.000000pt" height="193.000000pt" viewBox="0 0 200.000000 193.000000"
 preserveAspectRatio="xMidYMid meet">

<g transform="translate(0.000000,193.000000) scale(0.100000,-0.100000)"
fill="#000000" stroke="none">
<path d="M1462 1802 c-26 -26 -103 -112 -172 -191 -69 -80 -168 -182 -220
-227 l-95 -83 -45 44 c-25 25 -81 92 -125 150 -149 198 -158 207 -221 241 -35
20 -93 40 -140 49 -43 9 -101 25 -127 36 -60 25 -73 21 -81 -24 -4 -20 -20
-50 -36 -67 -40 -43 -47 -87 -22 -141 28 -65 79 -117 147 -151 114 -58 224
-137 324 -235 l102 -98 -119 -99 c-66 -54 -155 -121 -198 -148 -43 -28 -117
-79 -164 -113 -47 -35 -102 -70 -122 -78 -34 -14 -38 -20 -38 -51 0 -24 -6
-38 -19 -45 -24 -13 -51 -71 -51 -108 0 -34 47 -118 86 -155 67 -62 264 -105
361 -79 47 13 91 60 137 146 37 71 180 261 264 353 38 42 74 81 78 87 5 5 -2
1 -16 -8 -61 -41 -65 -42 -43 -11 30 42 60 67 72 59 21 -13 240 -292 294 -376
31 -47 83 -142 117 -212 46 -97 70 -134 102 -162 31 -26 49 -34 63 -30 11 3
40 9 64 12 34 5 46 2 53 -11 13 -22 38 -20 38 4 0 41 49 12 65 -38 6 -20 11
-22 38 -17 49 10 63 29 49 60 -14 31 -8 45 19 45 11 0 22 7 26 16 14 37 -19
92 -128 214 -62 69 -181 211 -265 316 -128 162 -259 318 -311 372 -7 7 -13 15
-13 17 0 6 265 231 318 269 60 43 252 156 266 156 5 0 -53 -47 -130 -104 -180
-135 -203 -161 -68 -80 60 36 156 90 214 120 58 29 116 62 130 73 24 19 24 21
8 37 -16 17 -15 19 18 48 34 30 35 32 23 66 -6 19 -22 45 -35 57 -21 19 -32
21 -77 16 -28 -3 -59 -12 -68 -19 -8 -8 -19 -14 -23 -14 -12 0 15 42 42 65 23
20 25 25 12 40 -8 9 -26 22 -40 27 -33 14 -151 18 -172 7 -12 -7 -27 -5 -47 6
-43 22 -48 20 -99 -33z m-93 -234 c-67 -79 -281 -292 -314 -314 -21 -13 -28
-14 -40 -4 -9 7 -14 16 -13 21 3 8 409 359 416 359 2 0 -20 -28 -49 -62z
m-480 -282 c30 -30 32 -36 17 -42 -22 -8 -51 19 -108 100 l-42 61 49 -42 c28
-22 65 -57 84 -77z m449 -27 c-90 -77 -169 -143 -176 -146 -15 -6 -56 37 -45
48 37 34 181 154 199 166 13 8 31 13 39 9 14 -5 95 32 120 55 5 5 13 9 18 9 5
0 -65 -63 -155 -141z m-369 -53 c9 -10 8 -16 -4 -26 -13 -11 -19 -11 -32 2
-16 17 -10 38 11 38 8 0 19 -6 25 -14z m131 -145 c0 -4 -10 -12 -21 -20 -20
-12 -21 -11 -16 9 4 16 2 20 -9 16 -15 -6 -18 3 -8 29 6 14 9 13 30 -6 13 -12
24 -25 24 -28z m-301 -28 c-21 -24 -199 -156 -205 -151 -5 6 113 140 155 175
24 19 28 20 43 6 14 -12 15 -19 7 -30z m502 -204 c79 -98 193 -252 223 -304
18 -29 17 -29 -15 5 -19 20 -51 56 -72 80 -31 37 -29 32 11 -25 130 -185 105
-166 -61 47 -74 95 -160 204 -191 242 -42 50 -55 74 -50 88 5 17 3 19 -15 13
-24 -7 -26 -2 -10 28 12 20 14 19 58 -29 26 -28 81 -93 122 -145z m-402 59
c-43 -36 -60 -36 -26 0 37 38 34 48 -5 19 -18 -13 -40 -28 -48 -32 -13 -8 -13
-7 -1 11 8 10 26 31 40 46 l25 28 24 -23 24 -22 -33 -27z"/>
</g>
</svg>
